<?xml version="1.0" encoding="utf-8" standalone="no"?>
<!DOCTYPE svg PUBLIC "-//W3C//DTD SVG 1.1//EN"
  "http://www.w3.org/Graphics/SVG/1.1/DTD/svg11.dtd">
<svg xmlns:xlink="http://www.w3.org/1999/xlink" width="1156.4875pt" height="268.278125pt" viewBox="0 0 1156.4875 268.278125" xmlns="http://www.w3.org/2000/svg" version="1.1">
 <metadata>
  <rdf:RDF xmlns:dc="http://purl.org/dc/elements/1.1/" xmlns:cc="http://creativecommons.org/ns#" xmlns:rdf="http://www.w3.org/1999/02/22-rdf-syntax-ns#">
   <cc:Work>
    <dc:type rdf:resource="http://purl.org/dc/dcmitype/StillImage"/>
    <dc:date>2026-07-23T19:59:42.501004</dc:date>
    <dc:format>image/svg+xml</dc:format>
    <dc:creator>
     <cc:Agent>
      <dc:title>Matplotlib v3.11.1, https://matplotlib.org/</dc:title>
     </cc:Agent>
    </dc:creator>
   </cc:Work>
  </rdf:RDF>
 </metadata>
 <defs>
  <style type="text/css">*{stroke-linejoin: round; stroke-linecap: butt}</style>
 </defs>
 <g id="figure_1">
  <g id="patch_1">
   <path d="M 0 268.278125 
L 1156.4875 268.278125 
L 1156.4875 0 
L 0 0 
z
" style="fill: #ffffff"/>
  </g>
  <g id="axes_1">
   <g id="patch_2">
    <path d="M 33.2875 244.078125 
L 1149.2875 244.078125 
L 1149.2875 22.318125 
L 33.2875 22.318125 
z
" style="fill: #ffffff"/>
   </g>
   <g id="matplotlib.axis_1">
    <g id="xtick_1">
     <g id="line2d_1">
      <defs>
       <path id="m67783a92ba" d="M 0 0 
L 0 3.5 
" style="stroke: #000000; stroke-width: 0.8"/>
      </defs>
      <g>
       <use xlink:href="#m67783a92ba" x="107.343371" y="244.078125" style="stroke: #000000; stroke-width: 0.8"/>
      </g>
     </g>
     <g id="text_1">
      <!-- −0.020 -->
      <g transform="translate(88.839464 258.675781) scale(0.1 -0.1)">
       <defs>
        <path id="DejaVuSans-c9c" d="M 678 2272 
L 4684 2272 
L 4684 1741 
L 678 1741 
L 678 2272 
z
" transform="scale(0.015625)"/>
        <path id="DejaVuSans-13" d="M 2034 4250 
Q 1547 4250 1301 3770 
Q 1056 3291 1056 2328 
Q 1056 1369 1301 889 
Q 1547 409 2034 409 
Q 2525 409 2770 889 
Q 3016 1369 3016 2328 
Q 3016 3291 2770 3770 
Q 2525 4250 2034 4250 
z
M 2034 4750 
Q 2819 4750 3233 4129 
Q 3647 3509 3647 2328 
Q 3647 1150 3233 529 
Q 2819 -91 2034 -91 
Q 1250 -91 836 529 
Q 422 1150 422 2328 
Q 422 3509 836 4129 
Q 1250 4750 2034 4750 
z
" transform="scale(0.015625)"/>
        <path id="DejaVuSans-11" d="M 684 794 
L 1344 794 
L 1344 0 
L 684 0 
L 684 794 
z
" transform="scale(0.015625)"/>
        <path id="DejaVuSans-15" d="M 1228 531 
L 3431 531 
L 3431 0 
L 469 0 
L 469 531 
Q 828 903 1448 1529 
Q 2069 2156 2228 2338 
Q 2531 2678 2651 2914 
Q 2772 3150 2772 3378 
Q 2772 3750 2511 3984 
Q 2250 4219 1831 4219 
Q 1534 4219 1204 4116 
Q 875 4013 500 3803 
L 500 4441 
Q 881 4594 1212 4672 
Q 1544 4750 1819 4750 
Q 2544 4750 2975 4387 
Q 3406 4025 3406 3419 
Q 3406 3131 3298 2873 
Q 3191 2616 2906 2266 
Q 2828 2175 2409 1742 
Q 1991 1309 1228 531 
z
" transform="scale(0.015625)"/>
       </defs>
       <use xlink:href="#DejaVuSans-c9c"/>
       <use xlink:href="#DejaVuSans-13" transform="translate(83.796875 0)"/>
       <use xlink:href="#DejaVuSans-11" transform="translate(147.421875 0)"/>
       <use xlink:href="#DejaVuSans-13" transform="translate(179.203125 0)"/>
       <use xlink:href="#DejaVuSans-15" transform="translate(242.828125 0)"/>
       <use xlink:href="#DejaVuSans-13" transform="translate(306.453125 0)"/>
      </g>
     </g>
    </g>
    <g id="xtick_2">
     <g id="line2d_2">
      <g>
       <use xlink:href="#m67783a92ba" x="244.41678" y="244.078125" style="stroke: #000000; stroke-width: 0.8"/>
      </g>
     </g>
     <g id="text_2">
      <!-- −0.015 -->
      <g transform="translate(225.912874 258.675781) scale(0.1 -0.1)">
       <defs>
        <path id="DejaVuSans-14" d="M 794 531 
L 1825 531 
L 1825 4091 
L 703 3866 
L 703 4441 
L 1819 4666 
L 2450 4666 
L 2450 531 
L 3481 531 
L 3481 0 
L 794 0 
L 794 531 
z
" transform="scale(0.015625)"/>
        <path id="DejaVuSans-18" d="M 691 4666 
L 3169 4666 
L 3169 4134 
L 1269 4134 
L 1269 2991 
Q 1406 3038 1543 3061 
Q 1681 3084 1819 3084 
Q 2600 3084 3056 2656 
Q 3513 2228 3513 1497 
Q 3513 744 3044 326 
Q 2575 -91 1722 -91 
Q 1428 -91 1123 -41 
Q 819 9 494 109 
L 494 744 
Q 775 591 1075 516 
Q 1375 441 1709 441 
Q 2250 441 2565 725 
Q 2881 1009 2881 1497 
Q 2881 1984 2565 2268 
Q 2250 2553 1709 2553 
Q 1456 2553 1204 2497 
Q 953 2441 691 2322 
L 691 4666 
z
" transform="scale(0.015625)"/>
       </defs>
       <use xlink:href="#DejaVuSans-c9c"/>
       <use xlink:href="#DejaVuSans-13" transform="translate(83.796875 0)"/>
       <use xlink:href="#DejaVuSans-11" transform="translate(147.421875 0)"/>
       <use xlink:href="#DejaVuSans-13" transform="translate(179.203125 0)"/>
       <use xlink:href="#DejaVuSans-14" transform="translate(242.828125 0)"/>
       <use xlink:href="#DejaVuSans-18" transform="translate(306.453125 0)"/>
      </g>
     </g>
    </g>
    <g id="xtick_3">
     <g id="line2d_3">
      <g>
       <use xlink:href="#m67783a92ba" x="381.490189" y="244.078125" style="stroke: #000000; stroke-width: 0.8"/>
      </g>
     </g>
     <g id="text_3">
      <!-- −0.010 -->
      <g transform="translate(362.986283 258.675781) scale(0.1 -0.1)">
       <use xlink:href="#DejaVuSans-c9c"/>
       <use xlink:href="#DejaVuSans-13" transform="translate(83.796875 0)"/>
       <use xlink:href="#DejaVuSans-11" transform="translate(147.421875 0)"/>
       <use xlink:href="#DejaVuSans-13" transform="translate(179.203125 0)"/>
       <use xlink:href="#DejaVuSans-14" transform="translate(242.828125 0)"/>
       <use xlink:href="#DejaVuSans-13" transform="translate(306.453125 0)"/>
      </g>
     </g>
    </g>
    <g id="xtick_4">
     <g id="line2d_4">
      <g>
       <use xlink:href="#m67783a92ba" x="518.563599" y="244.078125" style="stroke: #000000; stroke-width: 0.8"/>
      </g>
     </g>
     <g id="text_4">
      <!-- −0.005 -->
      <g transform="translate(500.059692 258.675781) scale(0.1 -0.1)">
       <use xlink:href="#DejaVuSans-c9c"/>
       <use xlink:href="#DejaVuSans-13" transform="translate(83.796875 0)"/>
       <use xlink:href="#DejaVuSans-11" transform="translate(147.421875 0)"/>
       <use xlink:href="#DejaVuSans-13" transform="translate(179.203125 0)"/>
       <use xlink:href="#DejaVuSans-13" transform="translate(242.828125 0)"/>
       <use xlink:href="#DejaVuSans-18" transform="translate(306.453125 0)"/>
      </g>
     </g>
    </g>
    <g id="xtick_5">
     <g id="line2d_5">
      <g>
       <use xlink:href="#m67783a92ba" x="655.637008" y="244.078125" style="stroke: #000000; stroke-width: 0.8"/>
      </g>
     </g>
     <g id="text_5">
      <!-- 0.000 -->
      <g transform="translate(641.322945 258.675781) scale(0.1 -0.1)">
       <use xlink:href="#DejaVuSans-13"/>
       <use xlink:href="#DejaVuSans-11" transform="translate(63.625 0)"/>
       <use xlink:href="#DejaVuSans-13" transform="translate(95.40625 0)"/>
       <use xlink:href="#DejaVuSans-13" transform="translate(159.03125 0)"/>
       <use xlink:href="#DejaVuSans-13" transform="translate(222.65625 0)"/>
      </g>
     </g>
    </g>
    <g id="xtick_6">
     <g id="line2d_6">
      <g>
       <use xlink:href="#m67783a92ba" x="792.710417" y="244.078125" style="stroke: #000000; stroke-width: 0.8"/>
      </g>
     </g>
     <g id="text_6">
      <!-- 0.005 -->
      <g transform="translate(778.396355 258.675781) scale(0.1 -0.1)">
       <use xlink:href="#DejaVuSans-13"/>
       <use xlink:href="#DejaVuSans-11" transform="translate(63.625 0)"/>
       <use xlink:href="#DejaVuSans-13" transform="translate(95.40625 0)"/>
       <use xlink:href="#DejaVuSans-13" transform="translate(159.03125 0)"/>
       <use xlink:href="#DejaVuSans-18" transform="translate(222.65625 0)"/>
      </g>
     </g>
    </g>
    <g id="xtick_7">
     <g id="line2d_7">
      <g>
       <use xlink:href="#m67783a92ba" x="929.783826" y="244.078125" style="stroke: #000000; stroke-width: 0.8"/>
      </g>
     </g>
     <g id="text_7">
      <!-- 0.010 -->
      <g transform="translate(915.469764 258.675781) scale(0.1 -0.1)">
       <use xlink:href="#DejaVuSans-13"/>
       <use xlink:href="#DejaVuSans-11" transform="translate(63.625 0)"/>
       <use xlink:href="#DejaVuSans-13" transform="translate(95.40625 0)"/>
       <use xlink:href="#DejaVuSans-14" transform="translate(159.03125 0)"/>
       <use xlink:href="#DejaVuSans-13" transform="translate(222.65625 0)"/>
      </g>
     </g>
    </g>
    <g id="xtick_8">
     <g id="line2d_8">
      <g>
       <use xlink:href="#m67783a92ba" x="1066.857236" y="244.078125" style="stroke: #000000; stroke-width: 0.8"/>
      </g>
     </g>
     <g id="text_8">
      <!-- 0.015 -->
      <g transform="translate(1052.543173 258.675781) scale(0.1 -0.1)">
       <use xlink:href="#DejaVuSans-13"/>
       <use xlink:href="#DejaVuSans-11" transform="translate(63.625 0)"/>
       <use xlink:href="#DejaVuSans-13" transform="translate(95.40625 0)"/>
       <use xlink:href="#DejaVuSans-14" transform="translate(159.03125 0)"/>
       <use xlink:href="#DejaVuSans-18" transform="translate(222.65625 0)"/>
      </g>
     </g>
    </g>
   </g>
   <g id="matplotlib.axis_2">
    <g id="ytick_1">
     <g id="line2d_9">
      <defs>
       <path id="md456140866" d="M 0 0 
L -3.5 0 
" style="stroke: #000000; stroke-width: 0.8"/>
      </defs>
      <g>
       <use xlink:href="#md456140866" x="33.2875" y="233.998125" style="stroke: #000000; stroke-width: 0.8"/>
      </g>
     </g>
     <g id="text_9">
      <!-- 0 -->
      <g transform="translate(19.925 237.796953) scale(0.1 -0.1)">
       <use xlink:href="#DejaVuSans-13"/>
      </g>
     </g>
    </g>
    <g id="ytick_2">
     <g id="line2d_10">
      <g>
       <use xlink:href="#md456140866" x="33.2875" y="190.871471" style="stroke: #000000; stroke-width: 0.8"/>
      </g>
     </g>
     <g id="text_10">
      <!-- 50 -->
      <g transform="translate(13.5625 194.670299) scale(0.1 -0.1)">
       <use xlink:href="#DejaVuSans-18"/>
       <use xlink:href="#DejaVuSans-13" transform="translate(63.625 0)"/>
      </g>
     </g>
    </g>
    <g id="ytick_3">
     <g id="line2d_11">
      <g>
       <use xlink:href="#md456140866" x="33.2875" y="147.744816" style="stroke: #000000; stroke-width: 0.8"/>
      </g>
     </g>
     <g id="text_11">
      <!-- 100 -->
      <g transform="translate(7.2 151.543644) scale(0.1 -0.1)">
       <use xlink:href="#DejaVuSans-14"/>
       <use xlink:href="#DejaVuSans-13" transform="translate(63.625 0)"/>
       <use xlink:href="#DejaVuSans-13" transform="translate(127.25 0)"/>
      </g>
     </g>
    </g>
    <g id="ytick_4">
     <g id="line2d_12">
      <g>
       <use xlink:href="#md456140866" x="33.2875" y="104.618162" style="stroke: #000000; stroke-width: 0.8"/>
      </g>
     </g>
     <g id="text_12">
      <!-- 150 -->
      <g transform="translate(7.2 108.41699) scale(0.1 -0.1)">
       <use xlink:href="#DejaVuSans-14"/>
       <use xlink:href="#DejaVuSans-18" transform="translate(63.625 0)"/>
       <use xlink:href="#DejaVuSans-13" transform="translate(127.25 0)"/>
      </g>
     </g>
    </g>
    <g id="ytick_5">
     <g id="line2d_13">
      <g>
       <use xlink:href="#md456140866" x="33.2875" y="61.491507" style="stroke: #000000; stroke-width: 0.8"/>
      </g>
     </g>
     <g id="text_13">
      <!-- 200 -->
      <g transform="translate(7.2 65.290335) scale(0.1 -0.1)">
       <use xlink:href="#DejaVuSans-15"/>
       <use xlink:href="#DejaVuSans-13" transform="translate(63.625 0)"/>
       <use xlink:href="#DejaVuSans-13" transform="translate(127.25 0)"/>
      </g>
     </g>
    </g>
   </g>
   <g id="line2d_14">
    <path d="M 203.531645 233.098232 
L 211.743065 233.998125 
L 219.954434 233.998125 
L 228.165855 233.998125 
L 236.377275 233.998125 
L 244.588696 233.998125 
L 252.80009 233.998125 
L 261.011485 233.998125 
L 269.222906 233.998125 
L 277.434326 233.998125 
L 285.645721 233.998125 
L 293.857116 233.998125 
L 302.068536 233.998125 
L 310.279956 233.998125 
L 318.491351 233.09823 
L 326.702746 233.998125 
L 334.914166 232.19834 
L 343.125587 233.09823 
L 351.336982 233.09823 
L 359.548377 233.098232 
L 367.759797 233.098232 
L 375.971217 232.198334 
L 384.182612 233.998125 
L 392.394007 233.098232 
L 400.605427 231.298447 
L 408.816848 232.198334 
L 417.028243 232.198334 
L 425.239637 229.498662 
L 433.451058 231.298443 
L 441.662465 227.698867 
L 449.873873 229.498655 
L 458.085281 227.698867 
L 466.296688 226.798972 
L 474.508096 223.199396 
L 482.719503 222.299503 
L 490.930911 221.399608 
L 499.142319 227.698867 
L 507.353726 222.299503 
L 515.565134 216.900138 
L 523.776541 216.000244 
L 531.987949 216.900138 
L 540.199357 213.300562 
L 548.410764 206.101409 
L 556.622172 191.703104 
L 564.83358 184.503952 
L 573.044987 171.005545 
L 581.256395 168.305858 
L 589.467802 145.808506 
L 597.67921 157.507131 
L 605.890618 136.809561 
L 614.102025 117.011902 
L 622.313433 108.012964 
L 630.52484 90.914973 
L 638.736248 81.916021 
L 646.947656 77.416559 
L 655.159063 44.120486 
L 663.370471 91.814857 
L 671.581878 96.314333 
L 679.793286 101.713693 
L 688.004694 112.512427 
L 696.216101 127.81063 
L 704.427509 137.709459 
L 712.638916 164.706287 
L 720.850324 165.606178 
L 729.061732 164.706287 
L 737.273139 185.403843 
L 745.484547 171.005545 
L 753.695955 200.702046 
L 761.907362 203.401726 
L 770.11877 207.901198 
L 778.330177 211.500773 
L 786.541585 210.60088 
L 794.752993 214.200456 
L 802.9644 223.199396 
L 811.175808 219.59982 
L 819.387215 222.299503 
L 827.598623 227.698867 
L 835.810031 224.099291 
L 844.021438 232.198337 
L 852.232846 227.698867 
L 860.444253 224.999184 
L 868.655661 228.598761 
L 876.867069 230.398543 
L 885.078463 228.598769 
L 893.289884 230.398555 
L 901.501304 231.298439 
L 909.712699 230.398543 
L 917.924094 233.098232 
L 926.135514 233.998125 
L 934.346935 233.998125 
L 942.55833 233.998125 
L 950.769724 233.998125 
L 958.981145 232.19834 
L 967.192565 233.998125 
L 975.40396 233.09823 
L 983.615355 233.998125 
L 991.826775 233.098232 
L 1000.038196 233.998125 
L 1008.24959 233.998125 
L 1016.460985 232.19834 
" clip-path="url(#p2ce801c15a)" style="fill: none; stroke: #1f77b4; stroke-width: 1.5; stroke-linecap: square"/>
   </g>
   <g id="line2d_15">
    <path d="M 295.911464 233.042227 
L 303.641787 233.042227 
L 311.372109 233.042227 
L 319.102432 233.998125 
L 326.832755 233.042224 
L 334.563052 233.042227 
L 342.293374 233.042227 
L 350.023697 233.042227 
L 357.754019 233.042227 
L 365.484342 232.08633 
L 373.214664 233.042227 
L 380.944987 233.042224 
L 388.675284 232.08633 
L 396.405607 233.998125 
L 404.135929 232.08633 
L 411.866252 233.042227 
L 419.596574 231.130432 
L 427.326897 229.218637 
L 435.057219 227.306831 
L 442.787529 224.439149 
L 450.517852 229.218637 
L 458.248174 232.086327 
L 465.978484 230.174535 
L 473.708807 232.08633 
L 481.439129 219.659661 
L 489.169452 218.703764 
L 496.899774 224.439133 
L 504.630084 213.924275 
L 512.360407 212.968378 
L 520.090729 211.056544 
L 527.821039 213.924275 
L 535.551361 205.321196 
L 543.281684 206.277095 
L 551.012007 195.76219 
L 558.742323 197.673987 
L 566.472639 182.37965 
L 574.202961 179.511961 
L 581.933284 169.952931 
L 589.6636 159.438051 
L 597.393916 151.790928 
L 605.124239 156.570388 
L 612.854558 124.069858 
L 620.584878 114.510878 
L 628.315197 99.216511 
L 636.045516 83.922132 
L 643.775836 73.407259 
L 651.506155 65.760069 
L 659.236474 43.774425 
L 666.966794 65.760069 
L 674.697113 88.700915 
L 682.427394 96.348802 
L 690.157714 111.643181 
L 697.888033 142.231921 
L 705.618352 146.055509 
L 713.348672 153.702659 
L 721.078988 160.394009 
L 728.80931 190.026833 
L 736.539633 190.026797 
L 744.269949 196.718088 
L 752.000265 190.982732 
L 759.730588 201.497605 
L 767.46091 203.409402 
L 775.191233 207.232948 
L 782.921543 211.056582 
L 790.651865 209.144788 
L 798.382188 218.703737 
L 806.112498 220.615559 
L 813.84282 226.350944 
L 821.573143 229.218637 
L 829.303465 226.350944 
L 837.033788 228.26273 
L 844.764098 224.439149 
L 852.49442 231.130432 
L 860.224743 233.998125 
L 867.955053 227.306842 
L 875.685375 231.130432 
L 883.415698 230.174535 
L 891.14602 232.08633 
L 898.876343 230.174535 
L 906.606665 231.130423 
L 914.336962 233.998125 
L 922.067285 230.174535 
L 929.797608 233.998125 
L 937.52793 232.08633 
L 945.258253 233.042227 
L 952.988575 233.042227 
L 960.718898 233.042227 
L 968.44922 233.998125 
L 976.179543 233.042224 
L 983.90984 233.998125 
L 991.640162 233.042227 
L 999.370485 233.998125 
L 1007.100808 233.042227 
L 1014.83113 233.998125 
L 1022.561453 233.998125 
L 1030.291775 233.998125 
L 1038.022072 233.998125 
L 1045.752395 233.998125 
L 1053.482717 233.998125 
L 1061.21304 233.042227 
" clip-path="url(#p2ce801c15a)" style="fill: none; stroke: #ff7f0e; stroke-width: 1.5; stroke-linecap: square"/>
   </g>
   <g id="line2d_16">
    <path d="M 84.014773 233.247115 
L 93.854057 233.998125 
L 103.693392 233.998125 
L 113.532676 233.998125 
L 123.37196 233.998125 
L 133.211295 233.998125 
L 143.050579 233.998125 
L 152.889863 233.998125 
L 162.729198 233.998125 
L 172.568482 233.998125 
L 182.407766 233.247119 
L 192.247101 233.998125 
L 202.086385 233.998125 
L 211.925669 233.998125 
L 221.765004 233.998125 
L 231.604288 233.998125 
L 241.443598 233.998125 
L 251.282908 233.247115 
L 261.122192 233.998125 
L 270.961501 233.998125 
L 280.800811 233.998125 
L 290.640095 233.247117 
L 300.479404 233.998125 
L 310.318714 232.496106 
L 320.157998 233.247117 
L 329.997307 233.998125 
L 339.836617 233.998125 
L 349.675927 233.998125 
L 359.515211 233.998125 
L 369.35452 233.998125 
L 379.19383 233.998125 
L 389.033114 233.247117 
L 398.872423 230.994094 
L 408.711733 233.247115 
L 418.551017 229.492079 
L 428.390326 227.990064 
L 438.229636 230.243082 
L 448.068933 231.745099 
L 457.90823 224.986033 
L 467.747539 226.488038 
L 477.586836 226.488038 
L 487.426133 223.484017 
L 497.265442 218.226944 
L 507.104739 213.720892 
L 516.944036 209.96588 
L 526.783345 217.475935 
L 536.622642 202.455803 
L 546.461952 198.700719 
L 556.301249 198.700742 
L 566.140552 194.945602 
L 575.979829 171.664447 
L 585.819133 162.652348 
L 595.658436 140.873111 
L 605.497739 140.122073 
L 615.337039 108.579725 
L 625.176339 90.555566 
L 635.015642 76.286392 
L 644.854944 65.77227 
L 654.694245 82.294459 
L 664.533547 69.527308 
L 674.372848 86.800528 
L 684.212151 98.816621 
L 694.051451 133.362995 
L 703.890751 149.134206 
L 713.730055 153.640249 
L 723.569358 175.419453 
L 733.408655 177.672514 
L 743.247958 194.194696 
L 753.087261 194.19467 
L 762.926558 209.214871 
L 772.765867 218.977951 
L 782.605164 221.230994 
L 792.444474 218.977951 
L 802.28377 212.218875 
L 812.123067 224.986033 
L 821.962377 222.732995 
L 831.801674 230.243082 
L 841.64097 227.239056 
L 851.48028 229.492073 
L 861.319577 230.99409 
L 871.158874 230.243086 
L 880.998183 233.247117 
L 890.837493 230.243077 
L 900.676777 233.247117 
L 910.516086 230.994094 
L 920.355396 232.496106 
L 930.19468 231.745102 
L 940.033989 233.247117 
L 949.873299 233.247115 
L 959.712583 233.247117 
L 969.551893 233.998125 
L 979.391202 233.998125 
L 989.230486 233.247117 
L 999.069796 233.247117 
L 1008.909105 233.998125 
L 1018.748415 232.496106 
L 1028.587699 233.998125 
L 1038.427008 233.247117 
L 1048.266318 233.998125 
L 1058.105602 233.247117 
" clip-path="url(#p2ce801c15a)" style="fill: none; stroke: #2ca02c; stroke-width: 1.5; stroke-linecap: square"/>
   </g>
   <g id="line2d_17">
    <path d="M 274.919739 233.109934 
L 283.239338 233.109934 
L 291.558937 233.998125 
L 299.878536 233.998125 
L 308.198135 233.109934 
L 316.517734 233.998125 
L 324.837359 233.109934 
L 333.156958 233.998125 
L 341.476557 233.998125 
L 349.796156 233.109934 
L 358.115755 233.998125 
L 366.435354 233.109934 
L 374.754954 233.998125 
L 383.074553 233.109934 
L 391.394152 232.221742 
L 399.713751 229.557181 
L 408.033375 233.109934 
L 416.352975 228.668976 
L 424.672574 232.221742 
L 432.992173 232.221742 
L 441.311772 228.668976 
L 449.631371 230.445359 
L 457.95097 227.780785 
L 466.270569 221.563445 
L 474.590168 224.228034 
L 482.90978 219.787061 
L 491.229379 222.451636 
L 499.548978 221.563445 
L 507.868577 215.346105 
L 516.188176 219.787084 
L 524.507788 211.793338 
L 532.827387 208.240573 
L 541.146986 195.805891 
L 549.466585 194.91773 
L 557.786191 189.588552 
L 566.10579 178.930294 
L 574.425395 170.048336 
L 582.744995 154.949085 
L 591.064594 151.396381 
L 599.384199 125.63876 
L 607.703798 122.086049 
L 616.0234 113.204127 
L 624.343003 95.440257 
L 632.662602 80.341059 
L 640.982204 90.111152 
L 649.301806 78.564664 
L 657.621407 80.341045 
L 665.941009 89.222954 
L 674.26061 90.111165 
L 682.580212 115.868154 
L 690.899776 120.309667 
L 699.219379 148.731775 
L 707.538981 138.961636 
L 715.85858 154.060953 
L 724.178185 173.601106 
L 732.497784 180.706676 
L 740.81739 195.805891 
L 749.136989 191.364937 
L 757.456588 204.687807 
L 765.776187 205.575997 
L 774.095786 221.563464 
L 782.415398 218.89887 
L 790.734997 218.89887 
L 799.054596 223.339828 
L 807.374195 215.346105 
L 815.693795 226.892605 
L 824.013406 218.89887 
L 832.333005 229.557168 
L 840.652605 229.557168 
L 848.972204 228.668976 
L 857.291803 230.445365 
L 865.611415 226.892582 
L 873.931001 231.333551 
L 882.2506 231.333559 
L 890.570225 232.221742 
L 898.889824 233.998125 
L 907.209423 232.221742 
L 915.529022 230.445359 
L 923.848621 233.998125 
L 932.16822 229.557168 
L 940.487819 233.998125 
L 948.807418 232.221742 
L 957.127017 233.109934 
L 965.446616 233.998125 
L 973.766215 233.109936 
L 982.08584 233.109934 
L 990.405439 233.998125 
L 998.725038 233.998125 
L 1007.044637 233.998125 
L 1015.364236 233.998125 
L 1023.683835 233.109934 
L 1032.003435 233.998125 
L 1040.323034 233.998125 
L 1048.642633 233.998125 
L 1056.962232 233.998125 
L 1065.281856 233.998125 
L 1073.601456 233.998125 
L 1081.921055 233.998125 
L 1090.240654 233.998125 
L 1098.560227 233.109936 
" clip-path="url(#p2ce801c15a)" style="fill: none; stroke: #d62728; stroke-width: 1.5; stroke-linecap: square"/>
   </g>
   <g id="line2d_18">
    <path d="M 346.247629 232.730199 
L 352.075569 233.998125 
L 357.903534 233.998125 
L 363.731474 233.998125 
L 369.559414 233.998125 
L 375.387353 233.998125 
L 381.215319 232.730199 
L 387.043259 233.998125 
L 392.871198 233.998125 
L 398.699164 233.998125 
L 404.527103 233.998125 
L 410.355043 233.998125 
L 416.182983 233.998125 
L 422.010948 233.998125 
L 427.838888 232.730199 
L 433.666828 233.998125 
L 439.494768 232.730205 
L 445.322733 232.730199 
L 451.150673 233.998125 
L 456.978625 231.462273 
L 462.806565 230.194355 
L 468.634518 232.730199 
L 474.462458 230.194355 
L 480.29041 227.658508 
L 486.118363 232.730199 
L 491.946302 230.194355 
L 497.774255 221.318864 
L 503.602195 223.854739 
L 509.430147 223.854717 
L 515.258087 218.783045 
L 521.08604 216.24716 
L 526.913979 217.515122 
L 532.741932 213.711353 
L 538.569885 216.24716 
L 544.397824 213.71133 
L 550.22577 201.032083 
L 556.053717 203.567965 
L 561.881669 184.549062 
L 567.709615 173.13774 
L 573.537562 166.798116 
L 579.365508 174.405664 
L 585.193454 157.922637 
L 591.0214 171.869815 
L 596.849346 124.956661 
L 602.677296 143.975472 
L 608.505242 136.367976 
L 614.333191 126.224519 
L 620.161137 102.133957 
L 625.989083 91.990559 
L 631.81703 81.847109 
L 637.644974 75.507565 
L 643.472921 55.220769 
L 649.300868 76.775476 
L 655.128815 75.507565 
L 660.956762 32.398125 
L 666.784709 65.364154 
L 672.612656 71.703764 
L 678.440602 103.401961 
L 684.268551 71.703764 
L 690.096498 109.741505 
L 695.924444 112.277354 
L 701.75239 121.152827 
L 707.580336 118.616978 
L 713.408282 137.635954 
L 719.236235 156.654719 
L 725.064181 183.281137 
L 730.892127 173.13774 
L 736.720073 182.013213 
L 742.54802 171.869815 
L 748.375966 203.567932 
L 754.203912 195.960381 
L 760.031858 201.032083 
L 765.859804 206.103811 
L 771.687757 211.175454 
L 777.515697 220.050968 
L 783.343649 216.24716 
L 789.171589 226.390585 
L 794.999541 222.586814 
L 800.827494 220.050939 
L 806.655434 223.854739 
L 812.483386 228.926421 
L 818.311326 223.854739 
L 824.139279 228.926421 
L 829.967218 228.926432 
L 835.795171 231.462278 
L 841.623124 232.730199 
L 847.451063 232.730202 
L 853.279016 231.462273 
L 859.106956 231.462278 
L 864.934908 231.462273 
L 870.762848 233.998125 
L 876.590788 233.998125 
L 882.418753 233.998125 
L 888.246693 233.998125 
L 894.074633 233.998125 
L 899.902598 233.998125 
L 905.730538 233.998125 
L 911.558478 233.998125 
L 917.386417 233.998125 
L 923.214383 232.730199 
" clip-path="url(#p2ce801c15a)" style="fill: none; stroke: #9467bd; stroke-width: 1.5; stroke-linecap: square"/>
   </g>
   <g id="patch_3">
    <path d="M 33.2875 244.078125 
L 33.2875 22.318125 
" style="fill: none; stroke: #000000; stroke-width: 0.8; stroke-linejoin: miter; stroke-linecap: square"/>
   </g>
   <g id="patch_4">
    <path d="M 1149.2875 244.078125 
L 1149.2875 22.318125 
" style="fill: none; stroke: #000000; stroke-width: 0.8; stroke-linejoin: miter; stroke-linecap: square"/>
   </g>
   <g id="patch_5">
    <path d="M 33.2875 244.078125 
L 1149.2875 244.078125 
" style="fill: none; stroke: #000000; stroke-width: 0.8; stroke-linejoin: miter; stroke-linecap: square"/>
   </g>
   <g id="patch_6">
    <path d="M 33.2875 22.318125 
L 1149.2875 22.318125 
" style="fill: none; stroke: #000000; stroke-width: 0.8; stroke-linejoin: miter; stroke-linecap: square"/>
   </g>
   <g id="text_14">
    <!-- gradient distribution -->
    <g transform="translate(529.914062 16.318125) scale(0.12 -0.12)">
     <defs>
      <path id="DejaVuSans-4a" d="M 2906 1791 
Q 2906 2416 2648 2759 
Q 2391 3103 1925 3103 
Q 1463 3103 1205 2759 
Q 947 2416 947 1791 
Q 947 1169 1205 825 
Q 1463 481 1925 481 
Q 2391 481 2648 825 
Q 2906 1169 2906 1791 
z
M 3481 434 
Q 3481 -459 3084 -895 
Q 2688 -1331 1869 -1331 
Q 1566 -1331 1297 -1286 
Q 1028 -1241 775 -1147 
L 775 -588 
Q 1028 -725 1275 -790 
Q 1522 -856 1778 -856 
Q 2344 -856 2625 -561 
Q 2906 -266 2906 331 
L 2906 616 
Q 2728 306 2450 153 
Q 2172 0 1784 0 
Q 1141 0 747 490 
Q 353 981 353 1791 
Q 353 2603 747 3093 
Q 1141 3584 1784 3584 
Q 2172 3584 2450 3431 
Q 2728 3278 2906 2969 
L 2906 3500 
L 3481 3500 
L 3481 434 
z
" transform="scale(0.015625)"/>
      <path id="DejaVuSans-55" d="M 2631 2963 
Q 2534 3019 2420 3045 
Q 2306 3072 2169 3072 
Q 1681 3072 1420 2755 
Q 1159 2438 1159 1844 
L 1159 0 
L 581 0 
L 581 3500 
L 1159 3500 
L 1159 2956 
Q 1341 3275 1631 3429 
Q 1922 3584 2338 3584 
Q 2397 3584 2469 3576 
Q 2541 3569 2628 3553 
L 2631 2963 
z
" transform="scale(0.015625)"/>
      <path id="DejaVuSans-44" d="M 2194 1759 
Q 1497 1759 1228 1600 
Q 959 1441 959 1056 
Q 959 750 1161 570 
Q 1363 391 1709 391 
Q 2188 391 2477 730 
Q 2766 1069 2766 1631 
L 2766 1759 
L 2194 1759 
z
M 3341 1997 
L 3341 0 
L 2766 0 
L 2766 531 
Q 2569 213 2275 61 
Q 1981 -91 1556 -91 
Q 1019 -91 701 211 
Q 384 513 384 1019 
Q 384 1609 779 1909 
Q 1175 2209 1959 2209 
L 2766 2209 
L 2766 2266 
Q 2766 2663 2505 2880 
Q 2244 3097 1772 3097 
Q 1472 3097 1187 3025 
Q 903 2953 641 2809 
L 641 3341 
Q 956 3463 1253 3523 
Q 1550 3584 1831 3584 
Q 2591 3584 2966 3190 
Q 3341 2797 3341 1997 
z
" transform="scale(0.015625)"/>
      <path id="DejaVuSans-47" d="M 2906 2969 
L 2906 4863 
L 3481 4863 
L 3481 0 
L 2906 0 
L 2906 525 
Q 2725 213 2448 61 
Q 2172 -91 1784 -91 
Q 1150 -91 751 415 
Q 353 922 353 1747 
Q 353 2572 751 3078 
Q 1150 3584 1784 3584 
Q 2172 3584 2448 3432 
Q 2725 3281 2906 2969 
z
M 947 1747 
Q 947 1113 1208 752 
Q 1469 391 1925 391 
Q 2381 391 2643 752 
Q 2906 1113 2906 1747 
Q 2906 2381 2643 2742 
Q 2381 3103 1925 3103 
Q 1469 3103 1208 2742 
Q 947 2381 947 1747 
z
" transform="scale(0.015625)"/>
      <path id="DejaVuSans-4c" d="M 603 3500 
L 1178 3500 
L 1178 0 
L 603 0 
L 603 3500 
z
M 603 4863 
L 1178 4863 
L 1178 4134 
L 603 4134 
L 603 4863 
z
" transform="scale(0.015625)"/>
      <path id="DejaVuSans-48" d="M 3597 1894 
L 3597 1613 
L 953 1613 
Q 991 1019 1311 708 
Q 1631 397 2203 397 
Q 2534 397 2845 478 
Q 3156 559 3463 722 
L 3463 178 
Q 3153 47 2828 -22 
Q 2503 -91 2169 -91 
Q 1331 -91 842 396 
Q 353 884 353 1716 
Q 353 2575 817 3079 
Q 1281 3584 2069 3584 
Q 2775 3584 3186 3129 
Q 3597 2675 3597 1894 
z
M 3022 2063 
Q 3016 2534 2758 2815 
Q 2500 3097 2075 3097 
Q 1594 3097 1305 2825 
Q 1016 2553 972 2059 
L 3022 2063 
z
" transform="scale(0.015625)"/>
      <path id="DejaVuSans-51" d="M 3513 2113 
L 3513 0 
L 2938 0 
L 2938 2094 
Q 2938 2591 2744 2837 
Q 2550 3084 2163 3084 
Q 1697 3084 1428 2787 
Q 1159 2491 1159 1978 
L 1159 0 
L 581 0 
L 581 3500 
L 1159 3500 
L 1159 2956 
Q 1366 3272 1645 3428 
Q 1925 3584 2291 3584 
Q 2894 3584 3203 3211 
Q 3513 2838 3513 2113 
z
" transform="scale(0.015625)"/>
      <path id="DejaVuSans-57" d="M 1172 4494 
L 1172 3500 
L 2356 3500 
L 2356 3053 
L 1172 3053 
L 1172 1153 
Q 1172 725 1289 603 
Q 1406 481 1766 481 
L 2356 481 
L 2356 0 
L 1766 0 
Q 1100 0 847 248 
Q 594 497 594 1153 
L 594 3053 
L 172 3053 
L 172 3500 
L 594 3500 
L 594 4494 
L 1172 4494 
z
" transform="scale(0.015625)"/>
      <path id="DejaVuSans-3" transform="scale(0.015625)"/>
      <path id="DejaVuSans-56" d="M 2834 3397 
L 2834 2853 
Q 2591 2978 2328 3040 
Q 2066 3103 1784 3103 
Q 1356 3103 1142 2972 
Q 928 2841 928 2578 
Q 928 2378 1081 2264 
Q 1234 2150 1697 2047 
L 1894 2003 
Q 2506 1872 2764 1633 
Q 3022 1394 3022 966 
Q 3022 478 2636 193 
Q 2250 -91 1575 -91 
Q 1294 -91 989 -36 
Q 684 19 347 128 
L 347 722 
Q 666 556 975 473 
Q 1284 391 1588 391 
Q 1994 391 2212 530 
Q 2431 669 2431 922 
Q 2431 1156 2273 1281 
Q 2116 1406 1581 1522 
L 1381 1569 
Q 847 1681 609 1914 
Q 372 2147 372 2553 
Q 372 3047 722 3315 
Q 1072 3584 1716 3584 
Q 2034 3584 2315 3537 
Q 2597 3491 2834 3397 
z
" transform="scale(0.015625)"/>
      <path id="DejaVuSans-45" d="M 3116 1747 
Q 3116 2381 2855 2742 
Q 2594 3103 2138 3103 
Q 1681 3103 1420 2742 
Q 1159 2381 1159 1747 
Q 1159 1113 1420 752 
Q 1681 391 2138 391 
Q 2594 391 2855 752 
Q 3116 1113 3116 1747 
z
M 1159 2969 
Q 1341 3281 1617 3432 
Q 1894 3584 2278 3584 
Q 2916 3584 3314 3078 
Q 3713 2572 3713 1747 
Q 3713 922 3314 415 
Q 2916 -91 2278 -91 
Q 1894 -91 1617 61 
Q 1341 213 1159 525 
L 1159 0 
L 581 0 
L 581 4863 
L 1159 4863 
L 1159 2969 
z
" transform="scale(0.015625)"/>
      <path id="DejaVuSans-58" d="M 544 1381 
L 544 3500 
L 1119 3500 
L 1119 1403 
Q 1119 906 1312 657 
Q 1506 409 1894 409 
Q 2359 409 2629 706 
Q 2900 1003 2900 1516 
L 2900 3500 
L 3475 3500 
L 3475 0 
L 2900 0 
L 2900 538 
Q 2691 219 2414 64 
Q 2138 -91 1772 -91 
Q 1169 -91 856 284 
Q 544 659 544 1381 
z
M 1991 3584 
L 1991 3584 
z
" transform="scale(0.015625)"/>
      <path id="DejaVuSans-52" d="M 1959 3097 
Q 1497 3097 1228 2736 
Q 959 2375 959 1747 
Q 959 1119 1226 758 
Q 1494 397 1959 397 
Q 2419 397 2687 759 
Q 2956 1122 2956 1747 
Q 2956 2369 2687 2733 
Q 2419 3097 1959 3097 
z
M 1959 3584 
Q 2709 3584 3137 3096 
Q 3566 2609 3566 1747 
Q 3566 888 3137 398 
Q 2709 -91 1959 -91 
Q 1206 -91 779 398 
Q 353 888 353 1747 
Q 353 2609 779 3096 
Q 1206 3584 1959 3584 
z
" transform="scale(0.015625)"/>
     </defs>
     <use xlink:href="#DejaVuSans-4a"/>
     <use xlink:href="#DejaVuSans-55" transform="translate(63.484375 0)"/>
     <use xlink:href="#DejaVuSans-44" transform="translate(104.59375 0)"/>
     <use xlink:href="#DejaVuSans-47" transform="translate(165.875 0)"/>
     <use xlink:href="#DejaVuSans-4c" transform="translate(229.359375 0)"/>
     <use xlink:href="#DejaVuSans-48" transform="translate(257.140625 0)"/>
     <use xlink:href="#DejaVuSans-51" transform="translate(318.671875 0)"/>
     <use xlink:href="#DejaVuSans-57" transform="translate(382.046875 0)"/>
     <use xlink:href="#DejaVuSans-3" transform="translate(421.25 0)"/>
     <use xlink:href="#DejaVuSans-47" transform="translate(453.03125 0)"/>
     <use xlink:href="#DejaVuSans-4c" transform="translate(516.515625 0)"/>
     <use xlink:href="#DejaVuSans-56" transform="translate(544.296875 0)"/>
     <use xlink:href="#DejaVuSans-57" transform="translate(596.390625 0)"/>
     <use xlink:href="#DejaVuSans-55" transform="translate(635.59375 0)"/>
     <use xlink:href="#DejaVuSans-4c" transform="translate(676.703125 0)"/>
     <use xlink:href="#DejaVuSans-45" transform="translate(704.484375 0)"/>
     <use xlink:href="#DejaVuSans-58" transform="translate(767.96875 0)"/>
     <use xlink:href="#DejaVuSans-57" transform="translate(831.34375 0)"/>
     <use xlink:href="#DejaVuSans-4c" transform="translate(870.546875 0)"/>
     <use xlink:href="#DejaVuSans-52" transform="translate(898.328125 0)"/>
     <use xlink:href="#DejaVuSans-51" transform="translate(959.515625 0)"/>
    </g>
   </g>
   <g id="legend_1">
    <g id="patch_7">
     <path d="M 1041.420312 105.322031 
L 1142.2875 105.322031 
Q 1144.2875 105.322031 1144.2875 103.322031 
L 1144.2875 29.318125 
Q 1144.2875 27.318125 1142.2875 27.318125 
L 1041.420312 27.318125 
Q 1039.420312 27.318125 1039.420312 29.318125 
L 1039.420312 103.322031 
Q 1039.420312 105.322031 1041.420312 105.322031 
z
" style="fill: #ffffff; opacity: 0.8; stroke: #cccccc; stroke-linejoin: miter"/>
    </g>
    <g id="line2d_19">
     <path d="M 1043.420312 35.416563 
L 1053.420312 35.416563 
L 1063.420312 35.416563 
" style="fill: none; stroke: #1f77b4; stroke-width: 1.5; stroke-linecap: square"/>
    </g>
    <g id="text_15">
     <!-- layer 1 (Tanh) -->
     <g transform="translate(1071.420312 38.916563) scale(0.1 -0.1)">
      <defs>
       <path id="DejaVuSans-4f" d="M 603 4863 
L 1178 4863 
L 1178 0 
L 603 0 
L 603 4863 
z
" transform="scale(0.015625)"/>
       <path id="DejaVuSans-5c" d="M 2059 -325 
Q 1816 -950 1584 -1140 
Q 1353 -1331 966 -1331 
L 506 -1331 
L 506 -850 
L 844 -850 
Q 1081 -850 1212 -737 
Q 1344 -625 1503 -206 
L 1606 56 
L 191 3500 
L 800 3500 
L 1894 763 
L 2988 3500 
L 3597 3500 
L 2059 -325 
z
" transform="scale(0.015625)"/>
       <path id="DejaVuSans-b" d="M 1984 4856 
Q 1566 4138 1362 3434 
Q 1159 2731 1159 2009 
Q 1159 1288 1364 580 
Q 1569 -128 1984 -844 
L 1484 -844 
Q 1016 -109 783 600 
Q 550 1309 550 2009 
Q 550 2706 781 3412 
Q 1013 4119 1484 4856 
L 1984 4856 
z
" transform="scale(0.015625)"/>
       <path id="DejaVuSans-37" d="M -19 4666 
L 3928 4666 
L 3928 4134 
L 2272 4134 
L 2272 0 
L 1638 0 
L 1638 4134 
L -19 4134 
L -19 4666 
z
" transform="scale(0.015625)"/>
       <path id="DejaVuSans-4b" d="M 3513 2113 
L 3513 0 
L 2938 0 
L 2938 2094 
Q 2938 2591 2744 2837 
Q 2550 3084 2163 3084 
Q 1697 3084 1428 2787 
Q 1159 2491 1159 1978 
L 1159 0 
L 581 0 
L 581 4863 
L 1159 4863 
L 1159 2956 
Q 1366 3272 1645 3428 
Q 1925 3584 2291 3584 
Q 2894 3584 3203 3211 
Q 3513 2838 3513 2113 
z
" transform="scale(0.015625)"/>
       <path id="DejaVuSans-c" d="M 513 4856 
L 1013 4856 
Q 1481 4119 1714 3412 
Q 1947 2706 1947 2009 
Q 1947 1309 1714 600 
Q 1481 -109 1013 -844 
L 513 -844 
Q 928 -128 1133 580 
Q 1338 1288 1338 2009 
Q 1338 2731 1133 3434 
Q 928 4138 513 4856 
z
" transform="scale(0.015625)"/>
      </defs>
      <use xlink:href="#DejaVuSans-4f"/>
      <use xlink:href="#DejaVuSans-44" transform="translate(27.78125 0)"/>
      <use xlink:href="#DejaVuSans-5c" transform="translate(89.0625 0)"/>
      <use xlink:href="#DejaVuSans-48" transform="translate(148.25 0)"/>
      <use xlink:href="#DejaVuSans-55" transform="translate(209.78125 0)"/>
      <use xlink:href="#DejaVuSans-3" transform="translate(250.890625 0)"/>
      <use xlink:href="#DejaVuSans-14" transform="translate(282.671875 0)"/>
      <use xlink:href="#DejaVuSans-3" transform="translate(346.296875 0)"/>
      <use xlink:href="#DejaVuSans-b" transform="translate(378.078125 0)"/>
      <use xlink:href="#DejaVuSans-37" transform="translate(417.09375 0)"/>
      <use xlink:href="#DejaVuSans-44" transform="translate(461.625 0)"/>
      <use xlink:href="#DejaVuSans-51" transform="translate(522.90625 0)"/>
      <use xlink:href="#DejaVuSans-4b" transform="translate(586.28125 0)"/>
      <use xlink:href="#DejaVuSans-c" transform="translate(649.65625 0)"/>
     </g>
    </g>
    <g id="line2d_20">
     <path d="M 1043.420312 50.417344 
L 1053.420312 50.417344 
L 1063.420312 50.417344 
" style="fill: none; stroke: #ff7f0e; stroke-width: 1.5; stroke-linecap: square"/>
    </g>
    <g id="text_16">
     <!-- layer 3 (Tanh) -->
     <g transform="translate(1071.420312 53.917344) scale(0.1 -0.1)">
      <defs>
       <path id="DejaVuSans-16" d="M 2597 2516 
Q 3050 2419 3304 2112 
Q 3559 1806 3559 1356 
Q 3559 666 3084 287 
Q 2609 -91 1734 -91 
Q 1441 -91 1130 -33 
Q 819 25 488 141 
L 488 750 
Q 750 597 1062 519 
Q 1375 441 1716 441 
Q 2309 441 2620 675 
Q 2931 909 2931 1356 
Q 2931 1769 2642 2001 
Q 2353 2234 1838 2234 
L 1294 2234 
L 1294 2753 
L 1863 2753 
Q 2328 2753 2575 2939 
Q 2822 3125 2822 3475 
Q 2822 3834 2567 4026 
Q 2313 4219 1838 4219 
Q 1578 4219 1281 4162 
Q 984 4106 628 3988 
L 628 4550 
Q 988 4650 1302 4700 
Q 1616 4750 1894 4750 
Q 2613 4750 3031 4423 
Q 3450 4097 3450 3541 
Q 3450 3153 3228 2886 
Q 3006 2619 2597 2516 
z
" transform="scale(0.015625)"/>
      </defs>
      <use xlink:href="#DejaVuSans-4f"/>
      <use xlink:href="#DejaVuSans-44" transform="translate(27.78125 0)"/>
      <use xlink:href="#DejaVuSans-5c" transform="translate(89.0625 0)"/>
      <use xlink:href="#DejaVuSans-48" transform="translate(148.25 0)"/>
      <use xlink:href="#DejaVuSans-55" transform="translate(209.78125 0)"/>
      <use xlink:href="#DejaVuSans-3" transform="translate(250.890625 0)"/>
      <use xlink:href="#DejaVuSans-16" transform="translate(282.671875 0)"/>
      <use xlink:href="#DejaVuSans-3" transform="translate(346.296875 0)"/>
      <use xlink:href="#DejaVuSans-b" transform="translate(378.078125 0)"/>
      <use xlink:href="#DejaVuSans-37" transform="translate(417.09375 0)"/>
      <use xlink:href="#DejaVuSans-44" transform="translate(461.625 0)"/>
      <use xlink:href="#DejaVuSans-51" transform="translate(522.90625 0)"/>
      <use xlink:href="#DejaVuSans-4b" transform="translate(586.28125 0)"/>
      <use xlink:href="#DejaVuSans-c" transform="translate(649.65625 0)"/>
     </g>
    </g>
    <g id="line2d_21">
     <path d="M 1043.420312 65.418125 
L 1053.420312 65.418125 
L 1063.420312 65.418125 
" style="fill: none; stroke: #2ca02c; stroke-width: 1.5; stroke-linecap: square"/>
    </g>
    <g id="text_17">
     <!-- layer 5 (Tanh) -->
     <g transform="translate(1071.420312 68.918125) scale(0.1 -0.1)">
      <use xlink:href="#DejaVuSans-4f"/>
      <use xlink:href="#DejaVuSans-44" transform="translate(27.78125 0)"/>
      <use xlink:href="#DejaVuSans-5c" transform="translate(89.0625 0)"/>
      <use xlink:href="#DejaVuSans-48" transform="translate(148.25 0)"/>
      <use xlink:href="#DejaVuSans-55" transform="translate(209.78125 0)"/>
      <use xlink:href="#DejaVuSans-3" transform="translate(250.890625 0)"/>
      <use xlink:href="#DejaVuSans-18" transform="translate(282.671875 0)"/>
      <use xlink:href="#DejaVuSans-3" transform="translate(346.296875 0)"/>
      <use xlink:href="#DejaVuSans-b" transform="translate(378.078125 0)"/>
      <use xlink:href="#DejaVuSans-37" transform="translate(417.09375 0)"/>
      <use xlink:href="#DejaVuSans-44" transform="translate(461.625 0)"/>
      <use xlink:href="#DejaVuSans-51" transform="translate(522.90625 0)"/>
      <use xlink:href="#DejaVuSans-4b" transform="translate(586.28125 0)"/>
      <use xlink:href="#DejaVuSans-c" transform="translate(649.65625 0)"/>
     </g>
    </g>
    <g id="line2d_22">
     <path d="M 1043.420312 80.418906 
L 1053.420312 80.418906 
L 1063.420312 80.418906 
" style="fill: none; stroke: #d62728; stroke-width: 1.5; stroke-linecap: square"/>
    </g>
    <g id="text_18">
     <!-- layer 7 (Tanh) -->
     <g transform="translate(1071.420312 83.918906) scale(0.1 -0.1)">
      <defs>
       <path id="DejaVuSans-1a" d="M 525 4666 
L 3525 4666 
L 3525 4397 
L 1831 0 
L 1172 0 
L 2766 4134 
L 525 4134 
L 525 4666 
z
" transform="scale(0.015625)"/>
      </defs>
      <use xlink:href="#DejaVuSans-4f"/>
      <use xlink:href="#DejaVuSans-44" transform="translate(27.78125 0)"/>
      <use xlink:href="#DejaVuSans-5c" transform="translate(89.0625 0)"/>
      <use xlink:href="#DejaVuSans-48" transform="translate(148.25 0)"/>
      <use xlink:href="#DejaVuSans-55" transform="translate(209.78125 0)"/>
      <use xlink:href="#DejaVuSans-3" transform="translate(250.890625 0)"/>
      <use xlink:href="#DejaVuSans-1a" transform="translate(282.671875 0)"/>
      <use xlink:href="#DejaVuSans-3" transform="translate(346.296875 0)"/>
      <use xlink:href="#DejaVuSans-b" transform="translate(378.078125 0)"/>
      <use xlink:href="#DejaVuSans-37" transform="translate(417.09375 0)"/>
      <use xlink:href="#DejaVuSans-44" transform="translate(461.625 0)"/>
      <use xlink:href="#DejaVuSans-51" transform="translate(522.90625 0)"/>
      <use xlink:href="#DejaVuSans-4b" transform="translate(586.28125 0)"/>
      <use xlink:href="#DejaVuSans-c" transform="translate(649.65625 0)"/>
     </g>
    </g>
    <g id="line2d_23">
     <path d="M 1043.420312 95.419688 
L 1053.420312 95.419688 
L 1063.420312 95.419688 
" style="fill: none; stroke: #9467bd; stroke-width: 1.5; stroke-linecap: square"/>
    </g>
    <g id="text_19">
     <!-- layer 9 (Tanh) -->
     <g transform="translate(1071.420312 98.919688) scale(0.1 -0.1)">
      <defs>
       <path id="DejaVuSans-1c" d="M 703 97 
L 703 672 
Q 941 559 1184 500 
Q 1428 441 1663 441 
Q 2288 441 2617 861 
Q 2947 1281 2994 2138 
Q 2813 1869 2534 1725 
Q 2256 1581 1919 1581 
Q 1219 1581 811 2004 
Q 403 2428 403 3163 
Q 403 3881 828 4315 
Q 1253 4750 1959 4750 
Q 2769 4750 3195 4129 
Q 3622 3509 3622 2328 
Q 3622 1225 3098 567 
Q 2575 -91 1691 -91 
Q 1453 -91 1209 -44 
Q 966 3 703 97 
z
M 1959 2075 
Q 2384 2075 2632 2365 
Q 2881 2656 2881 3163 
Q 2881 3666 2632 3958 
Q 2384 4250 1959 4250 
Q 1534 4250 1286 3958 
Q 1038 3666 1038 3163 
Q 1038 2656 1286 2365 
Q 1534 2075 1959 2075 
z
" transform="scale(0.015625)"/>
      </defs>
      <use xlink:href="#DejaVuSans-4f"/>
      <use xlink:href="#DejaVuSans-44" transform="translate(27.78125 0)"/>
      <use xlink:href="#DejaVuSans-5c" transform="translate(89.0625 0)"/>
      <use xlink:href="#DejaVuSans-48" transform="translate(148.25 0)"/>
      <use xlink:href="#DejaVuSans-55" transform="translate(209.78125 0)"/>
      <use xlink:href="#DejaVuSans-3" transform="translate(250.890625 0)"/>
      <use xlink:href="#DejaVuSans-1c" transform="translate(282.671875 0)"/>
      <use xlink:href="#DejaVuSans-3" transform="translate(346.296875 0)"/>
      <use xlink:href="#DejaVuSans-b" transform="translate(378.078125 0)"/>
      <use xlink:href="#DejaVuSans-37" transform="translate(417.09375 0)"/>
      <use xlink:href="#DejaVuSans-44" transform="translate(461.625 0)"/>
      <use xlink:href="#DejaVuSans-51" transform="translate(522.90625 0)"/>
      <use xlink:href="#DejaVuSans-4b" transform="translate(586.28125 0)"/>
      <use xlink:href="#DejaVuSans-c" transform="translate(649.65625 0)"/>
     </g>
    </g>
   </g>
  </g>
 </g>
 <defs>
  <clipPath id="p2ce801c15a">
   <rect x="33.2875" y="22.318125" width="1116" height="221.76"/>
  </clipPath>
 </defs>
</svg>
